<svg xmlns="http://www.w3.org/2000/svg" xmlns:xlink="http://www.w3.org/1999/xlink" viewBox="0 0 48 48" version="1.1"><g id="surface1"><path d="M32.875 5h-17.75a3.303 3.303 0 0 0-2.816 1.648L3.422 22.34a3.477 3.477 0 0 0 0 3.32l8.887 15.692c.562 1 1.68 1.648 2.816 1.648h17.75a3.303 3.303 0 0 0 2.816-1.648l8.887-15.692a3.477 3.477 0 0 0 0-3.32L35.691 6.648A3.303 3.303 0 0 0 32.875 5z" fill="#1D58BF"/><path d="M32.613 34h-3.05a.407.407 0 0 1-.352-.219L24.047 24.2c-.027-.05-.035-.11-.047-.16-.012.05-.02.11-.047.16l-5.18 9.582a.396.396 0 0 1-.335.219h-3.051c-.274 0-.485-.367-.34-.621L20.094 24l-5.047-9.398c-.125-.227.027-.551.265-.602h3.126c.132 0 .265.09.335.207l5.18 9.586c.027.05.035.098.047.156.012-.058.02-.105.047-.156l5.164-9.586a.406.406 0 0 1 .352-.207h3.05c.266 0 .465.355.34.602L27.906 24l5.047 9.379c.145.254-.066.621-.34.621z" fill="#FFF"/></g><metadata><rdf:RDF xmlns:rdf="http://www.w3.org/1999/02/22-rdf-syntax-ns#" xmlns:rdfs="http://www.w3.org/2000/01/rdf-schema#" xmlns:dc="http://purl.org/dc/elements/1.1/"><rdf:Description about="https://iconscout.com/legal#licenses" dc:title="xamarin" dc:description="xamarin" dc:publisher="Iconscout" dc:date="2017-12-15" dc:format="image/svg+xml" dc:language="en"><dc:creator><rdf:Bag><rdf:li>Icons8</rdf:li></rdf:Bag></dc:creator></rdf:Description></rdf:RDF></metadata></svg>