<?xml version="1.0" encoding="utf-8"?>
<!-- Generator: Adobe Illustrator 18.0.0, SVG Export Plug-In . SVG Version: 6.00 Build 0)  -->
<!DOCTYPE svg PUBLIC "-//W3C//DTD SVG 1.1//EN" "http://www.w3.org/Graphics/SVG/1.1/DTD/svg11.dtd">
<svg version="1.1" id="Layer_1" xmlns="http://www.w3.org/2000/svg" xmlns:xlink="http://www.w3.org/1999/xlink" x="0px" y="0px"
	 viewBox="0 0 100 100" enable-background="new 0 0 100 100" xml:space="preserve">
<circle fill="#0060FF" cx="49.8" cy="49.8" r="24.7"/>
<path fill="#0060FF" d="M43.2,95.9c-0.3,0-0.5-0.2-0.5-0.5l-1.4-10l-0.7-0.2c-6.4-1.7-12.2-5-16.9-9.7L23.3,75l-9.4,3.8
	c-0.1,0-0.1,0-0.2,0c-0.2,0-0.4-0.1-0.5-0.3L6.7,67.2c-0.1-0.2-0.1-0.5,0.1-0.7l7.9-6.2l-0.2-0.7c-1.8-6.4-1.8-13.1,0-19.5l0.2-0.7
	l-7.9-6.2c-0.2-0.2-0.3-0.5-0.1-0.7l6.6-11.4c0.1-0.2,0.3-0.3,0.5-0.3c0.1,0,0.1,0,0.2,0l9.4,3.8l0.5-0.5c4.7-4.7,10.5-8.1,16.9-9.7
	l0.7-0.2l1.4-10c0-0.3,0.3-0.5,0.5-0.5h13.2c0.3,0,0.5,0.2,0.5,0.5l1.4,10l0.7,0.2c6.4,1.7,12.2,5,16.9,9.7l0.5,0.5l9.4-3.8
	c0.1,0,0.1,0,0.2,0c0.2,0,0.4,0.1,0.5,0.3L93,32.5c0.1,0.2,0.1,0.5-0.1,0.7L85,39.4l0.2,0.7c1.8,6.4,1.8,13.1,0,19.5L85,60.2
	l7.9,6.2c0.2,0.2,0.3,0.5,0.1,0.7l-6.6,11.4c-0.1,0.2-0.3,0.3-0.5,0.3c-0.1,0-0.1,0-0.2,0l-9.7-3.9c-0.3-0.1-0.4-0.4-0.3-0.7
	c0.1-0.2,0.3-0.3,0.5-0.3c0.1,0,0.1,0,0.2,0l9.3,3.7L91.9,67L84,60.9c-0.2-0.1-0.2-0.4-0.2-0.6c2.1-6.7,2.1-14.2,0-20.9
	c-0.1-0.2,0-0.4,0.2-0.6l7.9-6.1L85.7,22l-9.3,3.7c-0.1,0-0.1,0-0.2,0c-0.1,0-0.3-0.1-0.4-0.2c-4.9-5.3-11.1-8.9-18.1-10.4
	c-0.2,0-0.4-0.2-0.4-0.5L56,4.9H43.7l-1.4,9.9c0,0.2-0.2,0.4-0.4,0.5c-6.9,1.6-13.2,5.2-18.1,10.4c-0.1,0.1-0.2,0.2-0.4,0.2
	c-0.1,0-0.1,0-0.2,0L14,22L7.8,32.7l7.9,6.2c0.2,0.1,0.2,0.4,0.2,0.6c-2.1,6.7-2.1,14.2,0,20.9c0.1,0.2,0,0.4-0.2,0.6L7.8,67
	L14,77.6l9.3-3.7c0.1,0,0.1,0,0.2,0c0.1,0,0.3,0.1,0.4,0.2c4.9,5.3,11.1,8.9,18.1,10.4c0.2,0,0.4,0.2,0.4,0.5l1.4,9.9H56l1.4-9.9
	c0-0.2,0.2-0.4,0.4-0.5c3.8-0.9,7.4-2.4,10.7-4.4c0.1-0.1,0.2-0.1,0.3-0.1c0.2,0,0.4,0.1,0.5,0.3c0.1,0.1,0.1,0.3,0.1,0.4
	c0,0.1-0.1,0.3-0.2,0.3c-3.1,1.9-6.5,3.4-10,4.3l-0.7,0.2l-1.4,10c0,0.3-0.3,0.5-0.5,0.5H43.2z"/>
<path fill="#FFFFFF" d="M45.9,57.1c-0.1,0-0.2,0-0.3-0.1c-0.3-0.2-0.3-0.5-0.2-0.7l7.9-13.4c0.1-0.2,0.3-0.3,0.5-0.3
	c0.1,0,0.2,0,0.3,0.1c0.3,0.2,0.3,0.5,0.2,0.7l-7.9,13.4C46.3,57,46.1,57.1,45.9,57.1z"/>
<path fill="#FFFFFF" d="M40,55.3c-0.1,0-0.3-0.1-0.4-0.2l-4.9-4.9c-0.2-0.2-0.2-0.6,0-0.8l4.9-4.9c0.1-0.1,0.2-0.2,0.4-0.2
	c0.1,0,0.3,0.1,0.4,0.2c0.2,0.2,0.2,0.6,0,0.8l-4.5,4.5l4.5,4.5c0.2,0.2,0.2,0.6,0,0.8C40.3,55.2,40.1,55.3,40,55.3z"/>
<path fill="#FFFFFF" d="M59.5,55.3c-0.3,0-0.5-0.2-0.5-0.3c0-0.1-0.1-0.4,0.1-0.6l4.5-4.5l-4.5-4.5c-0.2-0.2-0.2-0.6,0-0.8
	c0.1-0.1,0.2-0.2,0.4-0.2c0.1,0,0.3,0.1,0.4,0.2l4.9,4.9c0.1,0.1,0.2,0.2,0.2,0.4c0,0.1-0.1,0.3-0.2,0.4l-4.9,4.9
	C59.8,55.2,59.6,55.3,59.5,55.3z"/>
<rect x="7" y="4.4" fill="none" width="86" height="91.2"/>
</svg>
