<?xml version="1.0" encoding="utf-8"?>
<!-- Generator: Adobe Illustrator 18.0.0, SVG Export Plug-In . SVG Version: 6.00 Build 0)  -->
<!DOCTYPE svg PUBLIC "-//W3C//DTD SVG 1.1//EN" "http://www.w3.org/Graphics/SVG/1.1/DTD/svg11.dtd">
<svg version="1.1" id="Layer_1" xmlns="http://www.w3.org/2000/svg" xmlns:xlink="http://www.w3.org/1999/xlink" x="0px" y="0px"
	 viewBox="0 0 756.1 246" enable-background="new 0 0 756.1 246" xml:space="preserve">
<path fill="#1D58BF" d="M334.2,66.9l-30.7,90L291.1,124l20.5-56.9h-26.2L273,106.2l-12.4-39.1h-26l20.2,56.9l-12.1,32.9l-30.8-90
	h-30.7l48.8,122.4h23.8l19.3-47.9l19.5,47.9h23.6L365,66.9H334.2z"/>
<path fill="#1D58BF" d="M423.9,66.9h-25.5l-44.6,122.4h29l9.3-27.4h38.1l9.5,27.4h29L423.9,66.9z M396.5,142.4l14.7-43.3l14.3,43.3
	H396.5z"/>
<path fill="#1D58BF" d="M555.8,143.8c3.1-1.7,5.9-3.8,8.4-6.3c2.5-2.5,4.6-5.3,6.3-8.4c1.7-3.1,3.1-6.4,4-9.9
	c0.3-1.2,0.6-2.5,0.8-3.7c0.4-2.3,0.6-4.8,0.6-7.2c0-5.1-1-10.1-3-15c-0.2-0.5-0.4-1-0.7-1.5c-1.9-4.3-4.5-8.2-7.7-11.7
	c-3.6-3.9-7.8-7.1-12.7-9.5c-4.9-2.4-10.2-3.6-15.9-3.6h-55.1v122.4h28.3v-39.5h18.4l23.4,39.5h31.9L555.8,143.8z M543.4,120.4
	c-2.4,3.2-5.3,4.7-8.6,4.7h-25.9V91.7h25c3.2,0,6.2,1.5,9,4.5c2.8,3,4.1,7,4.1,12.1C547,113.2,545.8,117.3,543.4,120.4z"/>
<path fill="#1D58BF" d="M596.1,66.9v24.8h84.4V66.9H596.1z M624.4,164.5L624.4,164.5l-28.3-0.1v24.9h86v-24.8H624.4z M645.2,138.4
	v-22.9h-49.1v22.9H645.2z"/>
<path fill="#1D58BF" d="M74.2,189.1V66.4H120c10.1,0,19,1.6,26.6,4.8c7.6,3.2,14,7.6,19.1,13.1c5.1,5.5,9,12,11.6,19.4
	c2.6,7.4,3.9,15.3,3.9,23.8c0,9.3-1.4,17.8-4.3,25.3c-2.9,7.5-7,14-12.4,19.3s-11.8,9.5-19.3,12.4c-7.5,2.9-15.9,4.4-25.1,4.4H74.2z
	 M152.3,127.6c0-5.4-0.7-10.3-2.2-14.8c-1.4-4.4-3.5-8.3-6.3-11.5c-2.8-3.2-6.2-5.7-10.2-7.4c-4-1.7-8.6-2.6-13.6-2.6h-17.4v72.9
	H120c5.2,0,9.8-0.9,13.8-2.8c4-1.8,7.4-4.4,10.1-7.7c2.7-3.3,4.8-7.1,6.2-11.6C151.5,137.7,152.3,132.9,152.3,127.6z"/>
<rect x="18.7" y="16.9" fill="none" stroke="#1D58BF" stroke-width="10" stroke-miterlimit="10" width="719.2" height="216"/>
</svg>
