<?xml version="1.0" encoding="utf-8"?>
<!-- Generator: Adobe Illustrator 18.0.0, SVG Export Plug-In . SVG Version: 6.00 Build 0)  -->
<!DOCTYPE svg PUBLIC "-//W3C//DTD SVG 1.1//EN" "http://www.w3.org/Graphics/SVG/1.1/DTD/svg11.dtd">
<svg version="1.1" id="Layer_1" xmlns="http://www.w3.org/2000/svg" xmlns:xlink="http://www.w3.org/1999/xlink" x="0px" y="0px"
	 viewBox="0 0 100 100" enable-background="new 0 0 100 100" xml:space="preserve">
<g>
	<g id="XMLID_1_">
		<g>
			<polygon fill="#0060FF" points="49.7,46.3 49.7,66.2 34.1,58.7 34.1,38.9 			"/>
			<path fill="#0060FF" d="M73.5,6.9c-1.1,0-2.1,0.9-2.1,2.1s0.9,2,2.1,2c1.1,0,2-0.9,2-2S74.6,6.9,73.5,6.9z M70.9,9
				c0-1.4,1.2-2.6,2.6-2.6S76,7.6,76,9c0,1.4-1.1,2.5-2.5,2.5S70.9,10.4,70.9,9z"/>
			<polygon fill="#0060FF" points="12.7,70.7 87.8,70.7 87.8,26 60.7,26 60.7,20.9 61.9,20.9 66.7,20.8 66.7,21.3 61.2,21.4 
				61.2,25.5 88.3,25.5 88.3,71.2 12.2,71.2 12.1,65.6 12.6,65.6 			"/>
			<path fill="#0060FF" d="M60.1,21.4h-9.4v4.1h9.4V21.4z M50.2,26v-5.1h10.4V26H50.2z"/>
			<path fill="#0060FF" d="M60.1,26.5h-9.4v3.2l9.4,4.5V26.5z M60.6,35l-10.4-5v-4h10.4V35z"/>
			<polygon fill="#0060FF" points="50.2,46 66.9,38.1 66.9,59 66.1,59.4 64.3,60.3 64,59.9 66.4,58.7 66.4,38.9 50.7,46.3 
				50.7,66.2 59.4,62 59.6,62.5 50.2,67 			"/>
			<path fill="#0060FF" d="M48.2,9c0,1.1,0.9,2,2,2c1.1,0,2-0.9,2-2s-0.9-2.1-2-2.1C49.1,6.9,48.2,7.9,48.2,9z M50.2,11.5
				c-1.4,0-2.5-1.1-2.5-2.5c0-1.4,1.1-2.6,2.5-2.6c1.4,0,2.5,1.1,2.5,2.6C52.8,10.4,51.6,11.5,50.2,11.5z"/>
			<path fill="#0060FF" d="M39.8,20.9h10.4V26H39.8V20.9z M49.7,21.4h-9.4v4.1h9.4V21.4z"/>
			<path fill="#0060FF" d="M40.3,34.2l9.4-4.5v-3.2h-9.4V34.2z M50.2,30l-10.4,5V26h10.4V30z"/>
			<path fill="#0060FF" d="M40,77.1c-0.3,2.9-1.4,5.5-3.3,7.8l-1.1,1.3h29.3l-1.1-1.3c-2-2.3-3.1-4.9-3.3-7.8l-0.1-0.7H40L40,77.1z
				 M36.3,84.6c1.9-2.2,3-4.8,3.2-7.5l0.1-1.1h21.3l0.1,1.1c0.2,2.8,1.3,5.3,3.2,7.5l1.8,2.1H34.5L36.3,84.6z"/>
			<path fill="#0060FF" d="M50.2,46L33.6,38l16.6-7.9L66.8,38L50.2,46z M50.2,30.6L34.8,38l15.5,7.4L65.7,38L50.2,30.6z"/>
			<path fill="#0060FF" d="M49.7,46.3l-15.6-7.5v19.9l15.6,7.4V46.3z M33.6,38.1L50.2,46v21L33.6,59V38.1z"/>
			<polygon fill="#0060FF" points="39.3,26.5 13.2,26.5 13.2,60.1 12.7,60.1 12.7,26 39.8,26 39.8,35 33.5,38 33.5,59.1 50.2,67 
				59.6,62.5 59.8,63 50.7,67.4 50.7,67.8 50.3,67.6 50.2,67.6 50.2,67.6 49.7,67.8 49.7,67.4 33,59.4 33,38.3 32.5,38 33.1,37.7 
				33.1,37.3 33.5,37.5 39.3,34.7 			"/>
			<path fill="#0060FF" d="M28,87.2c-1.1,0-2,0.9-2,2c0,1.1,0.9,2.1,2,2.1h44.4c1.1,0,2-0.9,2-2.1c0-1.1-0.9-2-2-2H28z M25.5,89.3
				c0-1.4,1.1-2.5,2.5-2.5h44.4c1.4,0,2.5,1.1,2.5,2.5c0,1.4-1.2,2.6-2.5,2.6H28C26.6,91.8,25.5,90.7,25.5,89.3z"/>
			<path fill="#0060FF" d="M24.9,9c0,1.1,0.9,2,2.1,2c1.1,0,2-0.9,2-2s-0.9-2.1-2-2.1C25.8,6.9,24.9,7.9,24.9,9z M24.4,9
				c0-1.4,1.2-2.6,2.6-2.6c1.4,0,2.5,1.1,2.5,2.6c0,1.4-1.1,2.5-2.5,2.5C25.5,11.5,24.4,10.4,24.4,9z"/>
			<polygon fill="#0060FF" points="13.2,70.2 50.7,70.2 87.3,70.2 87.3,26.5 61.2,26.5 61.2,34.7 67,37.5 67.4,37.3 67.4,37.7 
				67.4,37.7 67.4,37.8 68,38 67.4,38.3 67.4,59.4 64.5,60.8 64.3,60.3 66.9,59 66.9,38 60.7,35 60.7,26 87.8,26 87.8,70.7 
				12.7,70.7 12.7,69.4 12.6,65.6 13.1,65.6 			"/>
			<path fill="#0060FF" d="M8,73.2c0,1.2,1,2.1,2.1,2.1h80.1c1.2,0,2.2-1,2.2-2.1V23.5c0-1.2-1-2.1-2.2-2.1h-18v-0.5h18
				c1.5,0,2.7,1.2,2.7,2.6v49.7c0,1.5-1.2,2.6-2.7,2.6H10.2c-1.4,0-2.6-1.2-2.6-2.6V23.5c0-1.5,1.2-2.6,2.6-2.6h29.6V26l-27.1,0
				l0.1,34.1h-0.5l-0.1-34.6l27.1,0v-4.1H10.2c-1.2,0-2.1,1-2.1,2.1V73.2z"/>
			<path fill="#0060FF" d="M73.5,6.4c-1.4,0-2.6,1.1-2.6,2.6c0,1.4,1.2,2.5,2.6,2.5S76,10.4,76,9C76,7.6,74.9,6.4,73.5,6.4z
				 M50.2,20.9V26h10.4v-5.1H50.2z M50.2,26v4l10.4,5V26H50.2z M47.7,9c0,1.4,1.1,2.5,2.5,2.5c1.4,0,2.5-1.1,2.5-2.5
				c0-1.4-1.1-2.6-2.5-2.6C48.8,6.4,47.7,7.6,47.7,9z M50.2,26H39.8V35l10.4-5V26z M50.2,20.9H39.8V26h10.4V20.9z M50.2,46
				l-16.6-7.9V59L50.2,67V46z M33.6,38L50.2,46L66.8,38l-16.6-7.9L33.6,38z M39.5,77.1c-0.2,2.8-1.3,5.3-3.2,7.5l-1.8,2.1h31.4
				l-1.8-2.1c-1.9-2.2-3-4.8-3.2-7.5l-0.1-1.1H39.6L39.5,77.1z M28,86.7c-1.4,0-2.5,1.1-2.5,2.5c0,1.4,1.1,2.6,2.5,2.6h44.4
				c1.4,0,2.5-1.1,2.5-2.6c0-1.4-1.2-2.5-2.5-2.5H28z M24.4,9c0,1.4,1.2,2.5,2.6,2.5c1.4,0,2.5-1.1,2.5-2.5c0-1.4-1.1-2.6-2.5-2.6
				C25.5,6.4,24.4,7.6,24.4,9z M10.2,75.9c-1.5,0-2.7-1.2-2.7-2.7V23.5c0-1.5,1.2-2.7,2.7-2.7h29.6v-5.1H27l0-3.1v-0.9l-0.8-0.3
				c-1-0.4-1.8-1.4-1.8-2.5c0-1.4,1.2-2.6,2.6-2.6c1.4,0,2.6,1.2,2.6,2.6c0,1.1-0.7,2.1-1.8,2.5L27,11.8v3.9h12.8l0,3.9v1.3h10.4v-9
				l-0.8-0.3c-1-0.4-1.8-1.4-1.8-2.5c0-1.4,1.2-2.6,2.6-2.6c1.4,0,2.6,1.2,2.6,2.6c0,1.1-0.7,2.1-1.7,2.5l-0.8,0.3v9.1h10.4v-5.1
				l12.9,0v-3.9l-0.8-0.3c-1.1-0.4-1.8-1.4-1.8-2.5c0-1.4,1.2-2.6,2.6-2.6s2.6,1.2,2.6,2.6c0,1.1-0.7,2.1-1.8,2.5l-0.8,0.3v3.9
				l-12.8,0v5.1h6l-4.8,0.1h-1.3V26h27.1l0,44.7l-75.2,0l0-5.2l0.1,3.8v1.3h75.1V26H60.7v9l6.2,3l0,21l-2.7,1.3l1.9-1l0.7-0.3v-21
				L50.2,46v21l9.3-4.5L50.2,67l-16.7-8l0-21.1l6.3-3v-9H12.7v34L12.6,26l27.1,0v-5.1H10.2c-1.4,0-2.6,1.2-2.6,2.6v49.7
				C7.5,74.7,8.7,75.8,10.2,75.9l80.1-0.1c1.5,0,2.7-1.2,2.7-2.6V23.5c0-1.5-1.2-2.6-2.7-2.6h-18l18-0.1c1.5,0,2.7,1.2,2.7,2.7v49.7
				c0,1.5-1.2,2.7-2.7,2.7H60.9l0.1,1.4c0.6,5.2,4,8.3,5.1,9.1l0.3,0.3h5.9c1.4,0,2.6,1.2,2.6,2.6c0,1.4-1.2,2.6-2.6,2.6H28
				c-1.4,0-2.6-1.2-2.6-2.6c0-1.4,1.2-2.6,2.6-2.6H34l0.3-0.3c1.4-1.1,4.5-4.1,5.1-9.1l0.1-1.4H10.2z"/>
			<path fill="#0060FF" d="M7.5,73.2c0,1.5,1.2,2.7,2.7,2.7h29.4l-0.1,1.4c-0.5,5-3.7,8-5.1,9.1L34,86.7H28c-1.4,0-2.6,1.2-2.6,2.6
				c0,1.4,1.2,2.6,2.6,2.6h44.4c1.4,0,2.6-1.2,2.6-2.6c0-1.4-1.2-2.6-2.6-2.6h-5.9l-0.3-0.3c-1.1-0.8-4.5-3.9-5.1-9.1l-0.1-1.4h29.4
				c1.5,0,2.7-1.2,2.7-2.7V23.5c0-1.5-1.2-2.7-2.7-2.7l-18,0.1v-0.5l18-0.1c1.8,0,3.2,1.4,3.2,3.2v49.7c0,1.8-1.4,3.2-3.2,3.2H61.5
				l0.1,0.8c0.5,5,3.9,8,4.9,8.8l0.2,0.2h5.7c1.7,0,3.1,1.4,3.1,3.1c0,1.7-1.4,3.1-3.1,3.1H28c-1.7,0-3.1-1.4-3.1-3.1
				c0-1.7,1.4-3.1,3.1-3.1h5.7L34,86c1.3-1,4.4-3.9,4.9-8.8l0.1-0.8H10.2C8.4,76.4,7,75,7,73.2V23.5c0-1.8,1.4-3.2,3.2-3.2h29.1
				v-4.1H26.5l0-4.1l-0.5-0.2c-1.2-0.4-2.1-1.6-2.1-2.9c0-1.7,1.4-3.1,3.1-3.1c1.7,0,3.1,1.4,3.1,3.1c0,1.3-0.8,2.5-2.1,2.9
				l-0.5,0.2v3.1h12.8l0,5.1h9.4v-8.2l-0.5-0.2c-1.2-0.4-2.1-1.6-2.1-2.9c0-1.7,1.4-3.1,3.1-3.1c1.7,0,3.1,1.4,3.1,3.1
				c0,1.3-0.8,2.5-2.1,2.9l-0.5,0.2v8.2h9.4v-5.1l12.9,0v-3.1l-0.5-0.2c-1.3-0.4-2.1-1.6-2.1-2.9c0-1.7,1.4-3.1,3.1-3.1
				s3.1,1.4,3.1,3.1c0,1.3-0.8,2.5-2.1,2.9L74,12.1v4.1l-12.8,0v4.1h5.5v0.5h-6v-5.1l12.8,0v-3.9l0.8-0.3c1-0.4,1.8-1.4,1.8-2.5
				c0-1.4-1.2-2.6-2.6-2.6S70.9,7.6,70.9,9c0,1.1,0.7,2.1,1.8,2.5l0.8,0.3v3.9l-12.9,0v5.1H50.2v-9.1l0.8-0.3c1-0.4,1.7-1.4,1.7-2.5
				c0-1.4-1.2-2.6-2.6-2.6c-1.4,0-2.6,1.2-2.6,2.6c0,1.1,0.7,2.1,1.8,2.5l0.8,0.3v9H39.8v-1.3l0-3.9H27v-3.9l0.8-0.3
				c1.1-0.4,1.8-1.4,1.8-2.5c0-1.4-1.2-2.6-2.6-2.6c-1.5,0-2.6,1.2-2.6,2.6c0,1.1,0.7,2.1,1.8,2.5l0.8,0.3v0.9l0,3.1h12.8v5.1H10.2
				c-1.5,0-2.7,1.2-2.7,2.7V73.2z"/>
		</g>
	</g>
</g>
</svg>
