<?xml version="1.0" encoding="utf-8"?>
<!-- Generator: Adobe Illustrator 18.0.0, SVG Export Plug-In . SVG Version: 6.00 Build 0)  -->
<!DOCTYPE svg PUBLIC "-//W3C//DTD SVG 1.1//EN" "http://www.w3.org/Graphics/SVG/1.1/DTD/svg11.dtd">
<svg version="1.1" id="Layer_1" xmlns="http://www.w3.org/2000/svg" xmlns:xlink="http://www.w3.org/1999/xlink" x="0px" y="0px"
	 viewBox="0 0 100 100" enable-background="new 0 0 100 100" xml:space="preserve">
<g id="XMLID_3_">
	<g>
		<rect x="81" y="11.5" fill="#0060FF" width="10.3" height="8.6"/>
		<path fill="#0060FF" d="M63.3,58.3c0,5.5-4.4,9.9-9.9,9.9c-5.5,0-9.9-4.4-9.9-9.9c0-5.5,4.4-9.9,9.9-9.9
			C58.9,48.4,63.3,52.9,63.3,58.3z M58.3,58.3c0-2.7-2.2-4.9-4.9-4.9c-2.7,0-4.9,2.2-4.9,4.9s2.2,4.9,4.9,4.9
			C56.1,63.2,58.3,61,58.3,58.3z"/>
		<path fill="#0060FF" d="M91.9,89.8H33.8c-0.4,0-0.7-0.3-0.7-0.7c0-0.4,0.3-0.7,0.7-0.7h57.4V28.2H80.9c-0.4,0-0.7-0.3-0.7-0.7
			c0-0.4,0.3-0.7,0.7-0.7h11c0.4,0,0.7,0.3,0.7,0.7v61.6C92.5,89.5,92.2,89.8,91.9,89.8z"/>
		<path fill="#0060FF" d="M81.3,32.6c0.4,0,0.7,0.3,0.7,0.7c0,0.4-0.3,0.7-0.7,0.7h-15c-0.4,0-0.7-0.3-0.7-0.7
			c0-0.4,0.3-0.7,0.7-0.7H81.3z"/>
		<path fill="#0060FF" d="M81.3,37.7c0.4,0,0.7,0.3,0.7,0.7c0,0.4-0.3,0.7-0.7,0.7h-6.5c-0.4,0-0.7-0.3-0.7-0.7
			c0-0.4,0.3-0.7,0.7-0.7H81.3z"/>
		<path fill="#0060FF" d="M53.4,53.4c2.7,0,4.9,2.2,4.9,4.9s-2.2,4.9-4.9,4.9c-2.7,0-4.9-2.2-4.9-4.9S50.7,53.4,53.4,53.4z M57,58.3
			c0-2-1.6-3.6-3.6-3.6s-3.6,1.6-3.6,3.6s1.6,3.6,3.6,3.6S57,60.3,57,58.3z"/>
		<path fill="#0060FF" d="M42.2,58.3c0-6.2,5-11.2,11.2-11.2c6.2,0,11.2,5,11.2,11.2s-5,11.2-11.2,11.2
			C47.2,69.5,42.2,64.5,42.2,58.3z M43.5,58.3c0,5.5,4.4,9.9,9.9,9.9c5.5,0,9.9-4.4,9.9-9.9c0-5.5-4.4-9.9-9.9-9.9
			C47.9,48.4,43.5,52.9,43.5,58.3z"/>
		<path fill="#0060FF" d="M33.3,80.6c0.4,0,0.7,0.3,0.7,0.7c0,0.4-0.3,0.7-0.7,0.7h-15c-0.4,0-0.7-0.3-0.7-0.7
			c0-0.4,0.3-0.7,0.7-0.7H33.3z"/>
		<path fill="#0060FF" d="M53.4,77.7c-6.4,0-13.3-3.3-20-9.5c-5-4.7-8.1-9.3-8.2-9.5c-0.1-0.2-0.1-0.5,0-0.7
			c0.1-0.2,3.2-4.8,8.2-9.5c6.7-6.2,13.6-9.5,20-9.5s13.3,3.3,19.9,9.5c5,4.7,8.1,9.3,8.2,9.5c0.2,0.2,0.2,0.5,0,0.7
			c-0.1,0.2-3.2,4.8-8.2,9.5C66.7,74.4,59.8,77.7,53.4,77.7z M26.9,58.7c2.1,3,13.4,17.7,26.5,17.7c13.2,0,24.4-14.7,26.5-17.7
			l0.3-0.3L79.9,58c-2.1-3-13.4-17.7-26.5-17.7C40.3,40.3,29,55,26.9,58l-0.3,0.3L26.9,58.7z"/>
		<path fill="#0060FF" d="M24.8,75.5c0.4,0,0.7,0.3,0.7,0.7c0,0.4-0.3,0.7-0.7,0.7h-6.5c-0.4,0-0.7-0.3-0.7-0.7
			c0-0.4,0.3-0.7,0.7-0.7H24.8z"/>
		<path fill="#0060FF" d="M91.2,20v-8.6H81V20H91.2z M23,16.3c-0.1-0.1-0.2-0.3-0.2-0.5s0.1-0.4,0.2-0.5l6-4.9
			c0.1-0.1,0.3-0.2,0.4-0.2h25.4c0.4,0,0.7,0.3,0.7,0.7s-0.3,0.7-0.7,0.7H29.7l-5.2,4.3l5.1,4.3l50,0v-3.6h-48
			c-0.4,0-0.7-0.3-0.7-0.7c0-0.4,0.3-0.7,0.7-0.7h48v-3.6H60.7c-0.4,0-0.7-0.3-0.7-0.7s0.3-0.7,0.7-0.7h31.2c0.4,0,0.7,0.3,0.7,0.7
			v9.9c0,0.4-0.3,0.7-0.7,0.7H29.4c-0.1,0-0.3-0.1-0.4-0.2L23,16.3z"/>
		<path fill="#0060FF" d="M16,71.4V18.6l-0.7,0.1c-3.8,0.7-6.5,3.9-6.5,7.7v49.1l1-1.2c1.5-1.6,3.5-2.7,5.6-3L16,71.4z M17.3,18v8.9
			H75c0.4,0,0.7,0.3,0.7,0.7c0,0.4-0.3,0.7-0.7,0.7H17.3v43.9c0,0.4-0.3,0.7-0.7,0.7c-4.3,0-7.9,3.5-7.9,7.9c0,4.3,3.5,7.8,7.9,7.8
			h11.2c0.4,0,0.7,0.3,0.7,0.7c0,0.4-0.3,0.7-0.7,0.7H16.6c-5.1,0-9.2-4.1-9.2-9.2V26.5c0-5.1,4.1-9.2,9.2-9.2
			C17,17.3,17.3,17.6,17.3,18z"/>
	</g>
</g>
</svg>
