<?xml version="1.0" encoding="utf-8"?>
<!-- Generator: Adobe Illustrator 18.0.0, SVG Export Plug-In . SVG Version: 6.00 Build 0)  -->
<!DOCTYPE svg PUBLIC "-//W3C//DTD SVG 1.1//EN" "http://www.w3.org/Graphics/SVG/1.1/DTD/svg11.dtd">
<svg version="1.1" id="Layer_1" xmlns="http://www.w3.org/2000/svg" xmlns:xlink="http://www.w3.org/1999/xlink" x="0px" y="0px"
	 viewBox="0 0 100 100" enable-background="new 0 0 100 100" xml:space="preserve">
<g>
	<path fill="none" stroke="#0060FF" stroke-miterlimit="10" d="M10.9,21h78.2c2.2,0,3.9,1.7,3.9,3.9v46.8c0,2.2-1.7,3.9-3.9,3.9
		H10.9c-2.2,0-3.9-1.7-3.9-3.9V24.9C7,22.8,8.7,21,10.9,21z"/>
	<polyline fill="none" stroke="#0060FF" stroke-miterlimit="10" points="11.8,60.7 11.8,25.1 88.3,25.1 88.3,71.6 11.8,71.6 
		11.8,66.3 	"/>
	<path fill="#0060FF" d="M33.9,85.3l-0.2,0.2h-5.7c-1.7,0-3.1,1.4-3.1,3.1c0,1.7,1.4,3.1,3.1,3.1h44.3c1.7,0,3.1-1.4,3.1-3.1
		c0-1.7-1.4-3.1-3.1-3.1h-5.7l-0.2-0.2c-1-0.8-4.4-3.8-4.9-8.8l-0.1-0.8h-1l0.1,0.7c0.2,2.9,1.4,5.5,3.3,7.8l1.1,1.3H35.4l1.1-1.3
		c2-2.3,3.1-4.9,3.3-7.8l0.1-0.7h-1l-0.1,0.8C38.2,81.4,35.2,84.3,33.9,85.3z M72.3,86.5c1.1,0,2.1,0.9,2.1,2c0,1.1-0.9,2.1-2.1,2.1
		H27.9c-1.1,0-2-0.9-2-2.1c0-1.1,0.9-2,2-2H72.3z"/>
	<g>
		<g>
			<path fill="#0060FF" d="M65.8,50.4c0,0.1,0,0.3,0,0.4c0,1.9-0.4,3.8-1.1,5.5v0c-0.2,0.5-0.4,1-0.7,1.5v0
				c-1.5,2.9-3.8,5.2-6.6,6.8h0c-0.5,0.3-0.9,0.5-1.4,0.7h0c-1.8,0.8-3.8,1.3-6,1.3c-0.2,0-0.3,0-0.5,0c-0.2,0-0.3,0-0.5,0
				c-2.1-0.1-4-0.5-5.8-1.3c-0.5-0.2-1-0.4-1.4-0.7h0c-2.8-1.5-5.1-3.8-6.6-6.7c0,0,0,0,0,0c-0.3-0.5-0.5-0.9-0.7-1.4
				c-0.8-1.8-1.2-3.8-1.2-5.8c0-0.1,0-0.3,0-0.4c0-0.2,0-0.4,0-0.6c0.1-2,0.5-3.9,1.2-5.7c0.2-0.5,0.4-1,0.7-1.4
				c1.6-3,4.1-5.4,7.1-6.9h0c0.5-0.3,1-0.5,1.5-0.7c1.6-0.6,3.4-1,5.2-1c0.2,0,0.3,0,0.5,0c0.2,0,0.3,0,0.5,0
				c1.9,0.1,3.7,0.4,5.4,1.1h0c0.5,0.2,1,0.4,1.5,0.7c3,1.5,5.5,4,7.1,7.1c0.3,0.5,0.5,1,0.7,1.5c0.7,1.7,1,3.5,1.1,5.4
				C65.8,50,65.8,50.2,65.8,50.4z"/>
		</g>
		<g>
			<path fill="#FFFFFF" d="M50,34.1v32.6c-0.2,0-0.3,0-0.5,0c-0.2,0-0.3,0-0.5,0V34.1c0.2,0,0.3,0,0.5,0
				C49.7,34.1,49.8,34.1,50,34.1z"/>
		</g>
		<g>
			<path fill="#FFFFFF" d="M43.2,65.4c-0.6-1.2-1.4-3-2-5.3h0c-0.1-0.4-0.2-0.7-0.3-1.1c-0.6-2.4-1.1-5.2-1.1-8.2c0-0.3,0-0.7,0-1
				c0-2.6,0.4-5.3,1.3-8.1c0.1-0.4,0.2-0.7,0.4-1.1c0.6-1.8,1.4-3.6,2.4-5.5c-0.5,0.2-1,0.4-1.5,0.7h0c-0.9,1.7-1.6,3.4-2.1,5.1
				c-0.1,0.4-0.2,0.8-0.3,1.1c-0.8,2.7-1.1,5.4-1.1,7.8c0,0.3,0,0.7,0,1c0,2.9,0.5,5.6,1,7.9c0.1,0.4,0.2,0.8,0.3,1.1
				c0.5,2,1.2,3.6,1.7,4.9h0L43.2,65.4z"/>
		</g>
		<g>
			<path fill="#FFFFFF" d="M60.4,50.8c0,2.9-0.5,5.5-1,7.8c-0.1,0.4-0.2,0.8-0.3,1.2c-0.5,1.9-1.2,3.6-1.7,4.8h0
				c-0.5,0.3-0.9,0.5-1.4,0.7c0.6-1.2,1.3-3,2-5.2c0.1-0.4,0.2-0.7,0.3-1.1c0.6-2.4,1.1-5.1,1.1-8.2c0-0.3,0-0.7,0-1
				c0-2.6-0.4-5.3-1.2-8.1c-0.1-0.4-0.2-0.8-0.4-1.1c-0.6-1.8-1.4-3.6-2.4-5.4c0.5,0.2,1,0.4,1.5,0.7c0.9,1.7,1.6,3.4,2.1,5.1h0
				c0.1,0.4,0.2,0.8,0.3,1.2c0.7,2.7,1.1,5.3,1.1,7.8C60.4,50.1,60.4,50.5,60.4,50.8z"/>
		</g>
		<g>
			<path fill="#FFFFFF" d="M65.8,50.4c0,0.1,0,0.3,0,0.4H33.2c0-0.1,0-0.3,0-0.4c0-0.2,0-0.4,0-0.6h32.6
				C65.8,50,65.8,50.2,65.8,50.4z"/>
		</g>
		<g>
			<path fill="#FFFFFF" d="M64.7,44.4c-1.8-1-3.6-1.8-5.4-2.3c-0.4-0.1-0.8-0.3-1.1-0.4c-2.8-0.8-5.6-1.2-8.2-1.2c-0.3,0-0.7,0-1,0
				c-3,0.1-5.7,0.5-8,1.1c-0.4,0.1-0.8,0.2-1.1,0.3c-2.4,0.7-4.3,1.6-5.4,2.1c0.2-0.5,0.4-1,0.7-1.4c1.3-0.6,3-1.3,5-1.8
				c0.4-0.1,0.8-0.2,1.2-0.3c2.3-0.6,4.8-1,7.7-1c0.3,0,0.7,0,1,0c2.5,0,5.1,0.3,7.8,1.1c0.4,0.1,0.8,0.2,1.1,0.3h0
				c1.7,0.5,3.3,1.2,5,2C64.3,43.4,64.5,43.9,64.7,44.4z"/>
		</g>
		<g>
			<path fill="#FFFFFF" d="M64.7,56.3c-0.2,0.5-0.4,1-0.7,1.5v0c-1.7,0.8-3.3,1.5-4.9,2c-0.4,0.1-0.8,0.2-1.1,0.3
				c-2.8,0.8-5.5,1.1-8,1.1h-0.3c-0.2,0-0.5,0-0.7,0c-2.9-0.1-5.6-0.5-7.9-1.1h0c-0.4-0.1-0.8-0.2-1.1-0.3c-2-0.6-3.7-1.2-4.9-1.8
				c0,0,0,0,0,0c-0.3-0.5-0.5-0.9-0.7-1.4c1.1,0.6,2.9,1.4,5.3,2.1c0.4,0.1,0.7,0.2,1.1,0.3c2.3,0.6,5.1,1.1,8.2,1.2
				c0.3,0,0.7,0,1,0c2.6,0,5.4-0.4,8.3-1.2c0.4-0.1,0.7-0.2,1.1-0.4C61.2,58.1,62.9,57.3,64.7,56.3z"/>
		</g>
	</g>
	<g>
		<path fill="#0060FF" d="M65.5,22.8L65.5,22.8l-5.5,0v-4.1l12.8,0v-4.1l0.5-0.2c1.2-0.4,2.1-1.6,2.1-2.9c0-1.7-1.4-3.1-3.1-3.1
			c-1.7,0-3.1,1.4-3.1,3.1c0,1.3,0.8,2.5,2.1,2.9l0.5,0.2v3.1l-12.8,0v5.1h-9.4v-8.2l0.5-0.2c1.2-0.4,2.1-1.6,2.1-2.9
			c0-1.7-1.4-3.1-3.1-3.1c-1.7,0-3.1,1.4-3.1,3.1c0,1.3,0.8,2.5,2.1,2.9l0.5,0.2v8.2h-9.4l0-5.2H26.2v-3.1l0.5-0.2
			c1.3-0.4,2.1-1.6,2.1-2.9c0-1.7-1.4-3.1-3.1-3.1c-1.7,0-3.1,1.4-3.1,3.1c0,1.3,0.8,2.5,2.1,2.9l0.5,0.2l0,4.1H38v4.1H10.7v0H65.5z
			 M70.2,11.5c0-1.1,0.9-2.1,2-2.1s2,0.9,2,2.1c0,1.1-0.9,2-2,2S70.2,12.6,70.2,11.5z M46.9,11.5c0-1.1,0.9-2.1,2-2.1
			c1.1,0,2,0.9,2,2.1c0,1.1-0.9,2-2,2C47.9,13.5,46.9,12.6,46.9,11.5z M23.7,11.5c0-1.1,0.9-2.1,2.1-2.1c1.1,0,2,0.9,2,2.1
			c0,1.1-0.9,2-2,2C24.6,13.5,23.7,12.6,23.7,11.5z"/>
	</g>
	<rect x="38" y="22.8" fill="#0060FF" width="1.1" height="16.7"/>
	<rect x="48.5" y="22.8" fill="#0060FF" width="1.1" height="16.7"/>
	<rect x="58.9" y="22.8" fill="#0060FF" width="1.1" height="16.7"/>
</g>
</svg>
